ISO-10303-21;
HEADER;
/* Generated by software containing ST-Developer
 * from STEP Tools, Inc. (www.steptools.com) 
 */

FILE_DESCRIPTION(
/* description */ (''),
/* implementation_level */ '2;1');

FILE_NAME(
/* name */ 'projector_stabalizer_mount.step',
/* time_stamp */ '2026-03-17T16:04:36-04:00',
/* author */ (''),
/* organization */ (''),
/* preprocessor_version */ 'ST-DEVELOPER v20.1',
/* originating_system */ 'Autodesk Translation Framework v14.24.0.0',
/* authorisation */ '');

FILE_SCHEMA (('AUTOMOTIVE_DESIGN { 1 0 10303 214 3 1 1 }'));
ENDSEC;

DATA;
#10=MECHANICAL_DESIGN_GEOMETRIC_PRESENTATION_REPRESENTATION('',(#13),#601);
#11=SHAPE_REPRESENTATION_RELATIONSHIP('SRR','None',#608,#12);
#12=ADVANCED_BREP_SHAPE_REPRESENTATION('',(#14),#600);
#13=STYLED_ITEM('',(#617),#14);
#14=MANIFOLD_SOLID_BREP('Body1',#369);
#15=CYLINDRICAL_SURFACE('',#389,0.327025);
#16=CYLINDRICAL_SURFACE('',#391,0.327025);
#17=FACE_BOUND('',#46,.T.);
#18=FACE_BOUND('',#47,.T.);
#19=FACE_BOUND('',#48,.T.);
#20=FACE_BOUND('',#50,.T.);
#21=FACE_BOUND('',#51,.T.);
#22=CIRCLE('',#384,0.327025);
#23=CIRCLE('',#385,0.327025);
#24=CIRCLE('',#387,0.327025);
#25=CIRCLE('',#388,0.327025);
#26=FACE_OUTER_BOUND('',#45,.T.);
#27=FACE_OUTER_BOUND('',#49,.T.);
#28=FACE_OUTER_BOUND('',#52,.T.);
#29=FACE_OUTER_BOUND('',#53,.T.);
#30=FACE_OUTER_BOUND('',#54,.T.);
#31=FACE_OUTER_BOUND('',#55,.T.);
#32=FACE_OUTER_BOUND('',#56,.T.);
#33=FACE_OUTER_BOUND('',#57,.T.);
#34=FACE_OUTER_BOUND('',#58,.T.);
#35=FACE_OUTER_BOUND('',#59,.T.);
#36=FACE_OUTER_BOUND('',#60,.T.);
#37=FACE_OUTER_BOUND('',#61,.T.);
#38=FACE_OUTER_BOUND('',#62,.T.);
#39=FACE_OUTER_BOUND('',#63,.T.);
#40=FACE_OUTER_BOUND('',#64,.T.);
#41=FACE_OUTER_BOUND('',#65,.T.);
#42=FACE_OUTER_BOUND('',#66,.T.);
#43=FACE_OUTER_BOUND('',#67,.T.);
#44=FACE_OUTER_BOUND('',#68,.T.);
#45=EDGE_LOOP('',(#237,#238,#239,#240));
#46=EDGE_LOOP('',(#241));
#47=EDGE_LOOP('',(#242));
#48=EDGE_LOOP('',(#243,#244,#245,#246,#247,#248,#249,#250));
#49=EDGE_LOOP('',(#251,#252,#253,#254));
#50=EDGE_LOOP('',(#255));
#51=EDGE_LOOP('',(#256));
#52=EDGE_LOOP('',(#257,#258,#259,#260));
#53=EDGE_LOOP('',(#261,#262,#263,#264));
#54=EDGE_LOOP('',(#265,#266,#267,#268));
#55=EDGE_LOOP('',(#269,#270,#271,#272,#273,#274,#275,#276));
#56=EDGE_LOOP('',(#277,#278,#279,#280));
#57=EDGE_LOOP('',(#281,#282,#283,#284));
#58=EDGE_LOOP('',(#285,#286,#287,#288,#289,#290));
#59=EDGE_LOOP('',(#291,#292,#293,#294));
#60=EDGE_LOOP('',(#295,#296,#297,#298));
#61=EDGE_LOOP('',(#299,#300,#301,#302));
#62=EDGE_LOOP('',(#303,#304,#305,#306,#307,#308));
#63=EDGE_LOOP('',(#309,#310,#311,#312));
#64=EDGE_LOOP('',(#313,#314,#315,#316));
#65=EDGE_LOOP('',(#317,#318,#319,#320));
#66=EDGE_LOOP('',(#321,#322,#323,#324));
#67=EDGE_LOOP('',(#325,#326,#327,#328));
#68=EDGE_LOOP('',(#329,#330,#331,#332));
#69=LINE('',#502,#113);
#70=LINE('',#504,#114);
#71=LINE('',#506,#115);
#72=LINE('',#507,#116);
#73=LINE('',#514,#117);
#74=LINE('',#516,#118);
#75=LINE('',#518,#119);
#76=LINE('',#520,#120);
#77=LINE('',#522,#121);
#78=LINE('',#524,#122);
#79=LINE('',#526,#123);
#80=LINE('',#527,#124);
#81=LINE('',#531,#125);
#82=LINE('',#533,#126);
#83=LINE('',#535,#127);
#84=LINE('',#536,#128);
#85=LINE('',#542,#129);
#86=LINE('',#544,#130);
#87=LINE('',#545,#131);
#88=LINE('',#547,#132);
#89=LINE('',#550,#133);
#90=LINE('',#552,#134);
#91=LINE('',#554,#135);
#92=LINE('',#556,#136);
#93=LINE('',#558,#137);
#94=LINE('',#560,#138);
#95=LINE('',#561,#139);
#96=LINE('',#564,#140);
#97=LINE('',#565,#141);
#98=LINE('',#568,#142);
#99=LINE('',#569,#143);
#100=LINE('',#572,#144);
#101=LINE('',#573,#145);
#102=LINE('',#574,#146);
#103=LINE('',#576,#147);
#104=LINE('',#579,#148);
#105=LINE('',#580,#149);
#106=LINE('',#582,#150);
#107=LINE('',#585,#151);
#108=LINE('',#586,#152);
#109=LINE('',#588,#153);
#110=LINE('',#592,#154);
#111=LINE('',#593,#155);
#112=LINE('',#596,#156);
#113=VECTOR('',#410,1.);
#114=VECTOR('',#411,1.);
#115=VECTOR('',#412,1.);
#116=VECTOR('',#413,1.);
#117=VECTOR('',#418,1.);
#118=VECTOR('',#419,1.);
#119=VECTOR('',#420,1.);
#120=VECTOR('',#421,1.);
#121=VECTOR('',#422,1.);
#122=VECTOR('',#423,1.);
#123=VECTOR('',#424,1.);
#124=VECTOR('',#425,1.);
#125=VECTOR('',#428,1.);
#126=VECTOR('',#429,1.);
#127=VECTOR('',#430,1.);
#128=VECTOR('',#431,1.);
#129=VECTOR('',#438,0.327);
#130=VECTOR('',#441,1.);
#131=VECTOR('',#442,1.);
#132=VECTOR('',#445,0.327);
#133=VECTOR('',#448,1.);
#134=VECTOR('',#449,1.);
#135=VECTOR('',#450,1.);
#136=VECTOR('',#451,1.);
#137=VECTOR('',#452,1.);
#138=VECTOR('',#453,1.);
#139=VECTOR('',#454,1.);
#140=VECTOR('',#457,1.);
#141=VECTOR('',#458,1.);
#142=VECTOR('',#461,1.);
#143=VECTOR('',#462,1.);
#144=VECTOR('',#465,1.);
#145=VECTOR('',#466,1.);
#146=VECTOR('',#467,1.);
#147=VECTOR('',#470,1.);
#148=VECTOR('',#473,1.);
#149=VECTOR('',#474,1.);
#150=VECTOR('',#477,1.);
#151=VECTOR('',#480,1.);
#152=VECTOR('',#481,1.);
#153=VECTOR('',#484,1.);
#154=VECTOR('',#489,1.);
#155=VECTOR('',#490,1.);
#156=VECTOR('',#495,1.);
#157=VERTEX_POINT('',#500);
#158=VERTEX_POINT('',#501);
#159=VERTEX_POINT('',#503);
#160=VERTEX_POINT('',#505);
#161=VERTEX_POINT('',#508);
#162=VERTEX_POINT('',#510);
#163=VERTEX_POINT('',#512);
#164=VERTEX_POINT('',#513);
#165=VERTEX_POINT('',#515);
#166=VERTEX_POINT('',#517);
#167=VERTEX_POINT('',#519);
#168=VERTEX_POINT('',#521);
#169=VERTEX_POINT('',#523);
#170=VERTEX_POINT('',#525);
#171=VERTEX_POINT('',#529);
#172=VERTEX_POINT('',#530);
#173=VERTEX_POINT('',#532);
#174=VERTEX_POINT('',#534);
#175=VERTEX_POINT('',#537);
#176=VERTEX_POINT('',#539);
#177=VERTEX_POINT('',#549);
#178=VERTEX_POINT('',#551);
#179=VERTEX_POINT('',#553);
#180=VERTEX_POINT('',#555);
#181=VERTEX_POINT('',#557);
#182=VERTEX_POINT('',#559);
#183=VERTEX_POINT('',#563);
#184=VERTEX_POINT('',#567);
#185=VERTEX_POINT('',#571);
#186=VERTEX_POINT('',#578);
#187=VERTEX_POINT('',#584);
#188=VERTEX_POINT('',#591);
#189=EDGE_CURVE('',#157,#158,#69,.F.);
#190=EDGE_CURVE('',#159,#158,#70,.T.);
#191=EDGE_CURVE('',#160,#159,#71,.T.);
#192=EDGE_CURVE('',#157,#160,#72,.T.);
#193=EDGE_CURVE('',#161,#161,#22,.T.);
#194=EDGE_CURVE('',#162,#162,#23,.T.);
#195=EDGE_CURVE('',#163,#164,#73,.T.);
#196=EDGE_CURVE('',#164,#165,#74,.T.);
#197=EDGE_CURVE('',#165,#166,#75,.T.);
#198=EDGE_CURVE('',#167,#166,#76,.T.);
#199=EDGE_CURVE('',#167,#168,#77,.T.);
#200=EDGE_CURVE('',#168,#169,#78,.T.);
#201=EDGE_CURVE('',#169,#170,#79,.T.);
#202=EDGE_CURVE('',#163,#170,#80,.T.);
#203=EDGE_CURVE('',#171,#172,#81,.T.);
#204=EDGE_CURVE('',#172,#173,#82,.T.);
#205=EDGE_CURVE('',#174,#173,#83,.F.);
#206=EDGE_CURVE('',#171,#174,#84,.F.);
#207=EDGE_CURVE('',#175,#175,#24,.F.);
#208=EDGE_CURVE('',#176,#176,#25,.F.);
#209=EDGE_CURVE('',#161,#175,#85,.T.);
#210=EDGE_CURVE('',#172,#157,#86,.F.);
#211=EDGE_CURVE('',#158,#171,#87,.F.);
#212=EDGE_CURVE('',#162,#176,#88,.T.);
#213=EDGE_CURVE('',#177,#168,#89,.T.);
#214=EDGE_CURVE('',#178,#177,#90,.T.);
#215=EDGE_CURVE('',#179,#178,#91,.T.);
#216=EDGE_CURVE('',#180,#179,#92,.T.);
#217=EDGE_CURVE('',#181,#180,#93,.T.);
#218=EDGE_CURVE('',#182,#181,#94,.T.);
#219=EDGE_CURVE('',#169,#182,#95,.T.);
#220=EDGE_CURVE('',#183,#182,#96,.T.);
#221=EDGE_CURVE('',#183,#170,#97,.T.);
#222=EDGE_CURVE('',#181,#184,#98,.T.);
#223=EDGE_CURVE('',#184,#183,#99,.T.);
#224=EDGE_CURVE('',#180,#185,#100,.T.);
#225=EDGE_CURVE('',#185,#164,#101,.T.);
#226=EDGE_CURVE('',#184,#163,#102,.T.);
#227=EDGE_CURVE('',#174,#159,#103,.F.);
#228=EDGE_CURVE('',#186,#179,#104,.T.);
#229=EDGE_CURVE('',#186,#185,#105,.T.);
#230=EDGE_CURVE('',#165,#186,#106,.T.);
#231=EDGE_CURVE('',#187,#178,#107,.T.);
#232=EDGE_CURVE('',#187,#166,#108,.T.);
#233=EDGE_CURVE('',#173,#160,#109,.T.);
#234=EDGE_CURVE('',#188,#167,#110,.F.);
#235=EDGE_CURVE('',#177,#188,#111,.T.);
#236=EDGE_CURVE('',#188,#187,#112,.T.);
#237=ORIENTED_EDGE('',*,*,#189,.T.);
#238=ORIENTED_EDGE('',*,*,#190,.F.);
#239=ORIENTED_EDGE('',*,*,#191,.F.);
#240=ORIENTED_EDGE('',*,*,#192,.F.);
#241=ORIENTED_EDGE('',*,*,#193,.T.);
#242=ORIENTED_EDGE('',*,*,#194,.T.);
#243=ORIENTED_EDGE('',*,*,#195,.T.);
#244=ORIENTED_EDGE('',*,*,#196,.T.);
#245=ORIENTED_EDGE('',*,*,#197,.T.);
#246=ORIENTED_EDGE('',*,*,#198,.F.);
#247=ORIENTED_EDGE('',*,*,#199,.T.);
#248=ORIENTED_EDGE('',*,*,#200,.T.);
#249=ORIENTED_EDGE('',*,*,#201,.T.);
#250=ORIENTED_EDGE('',*,*,#202,.F.);
#251=ORIENTED_EDGE('',*,*,#203,.T.);
#252=ORIENTED_EDGE('',*,*,#204,.T.);
#253=ORIENTED_EDGE('',*,*,#205,.F.);
#254=ORIENTED_EDGE('',*,*,#206,.F.);
#255=ORIENTED_EDGE('',*,*,#207,.T.);
#256=ORIENTED_EDGE('',*,*,#208,.T.);
#257=ORIENTED_EDGE('',*,*,#193,.F.);
#258=ORIENTED_EDGE('',*,*,#209,.T.);
#259=ORIENTED_EDGE('',*,*,#207,.F.);
#260=ORIENTED_EDGE('',*,*,#209,.F.);
#261=ORIENTED_EDGE('',*,*,#189,.F.);
#262=ORIENTED_EDGE('',*,*,#210,.F.);
#263=ORIENTED_EDGE('',*,*,#203,.F.);
#264=ORIENTED_EDGE('',*,*,#211,.F.);
#265=ORIENTED_EDGE('',*,*,#194,.F.);
#266=ORIENTED_EDGE('',*,*,#212,.T.);
#267=ORIENTED_EDGE('',*,*,#208,.F.);
#268=ORIENTED_EDGE('',*,*,#212,.F.);
#269=ORIENTED_EDGE('',*,*,#200,.F.);
#270=ORIENTED_EDGE('',*,*,#213,.F.);
#271=ORIENTED_EDGE('',*,*,#214,.F.);
#272=ORIENTED_EDGE('',*,*,#215,.F.);
#273=ORIENTED_EDGE('',*,*,#216,.F.);
#274=ORIENTED_EDGE('',*,*,#217,.F.);
#275=ORIENTED_EDGE('',*,*,#218,.F.);
#276=ORIENTED_EDGE('',*,*,#219,.F.);
#277=ORIENTED_EDGE('',*,*,#219,.T.);
#278=ORIENTED_EDGE('',*,*,#220,.F.);
#279=ORIENTED_EDGE('',*,*,#221,.T.);
#280=ORIENTED_EDGE('',*,*,#201,.F.);
#281=ORIENTED_EDGE('',*,*,#218,.T.);
#282=ORIENTED_EDGE('',*,*,#222,.T.);
#283=ORIENTED_EDGE('',*,*,#223,.T.);
#284=ORIENTED_EDGE('',*,*,#220,.T.);
#285=ORIENTED_EDGE('',*,*,#217,.T.);
#286=ORIENTED_EDGE('',*,*,#224,.T.);
#287=ORIENTED_EDGE('',*,*,#225,.T.);
#288=ORIENTED_EDGE('',*,*,#195,.F.);
#289=ORIENTED_EDGE('',*,*,#226,.F.);
#290=ORIENTED_EDGE('',*,*,#222,.F.);
#291=ORIENTED_EDGE('',*,*,#206,.T.);
#292=ORIENTED_EDGE('',*,*,#227,.T.);
#293=ORIENTED_EDGE('',*,*,#190,.T.);
#294=ORIENTED_EDGE('',*,*,#211,.T.);
#295=ORIENTED_EDGE('',*,*,#216,.T.);
#296=ORIENTED_EDGE('',*,*,#228,.F.);
#297=ORIENTED_EDGE('',*,*,#229,.T.);
#298=ORIENTED_EDGE('',*,*,#224,.F.);
#299=ORIENTED_EDGE('',*,*,#230,.F.);
#300=ORIENTED_EDGE('',*,*,#196,.F.);
#301=ORIENTED_EDGE('',*,*,#225,.F.);
#302=ORIENTED_EDGE('',*,*,#229,.F.);
#303=ORIENTED_EDGE('',*,*,#215,.T.);
#304=ORIENTED_EDGE('',*,*,#231,.F.);
#305=ORIENTED_EDGE('',*,*,#232,.T.);
#306=ORIENTED_EDGE('',*,*,#197,.F.);
#307=ORIENTED_EDGE('',*,*,#230,.T.);
#308=ORIENTED_EDGE('',*,*,#228,.T.);
#309=ORIENTED_EDGE('',*,*,#205,.T.);
#310=ORIENTED_EDGE('',*,*,#233,.T.);
#311=ORIENTED_EDGE('',*,*,#191,.T.);
#312=ORIENTED_EDGE('',*,*,#227,.F.);
#313=ORIENTED_EDGE('',*,*,#204,.F.);
#314=ORIENTED_EDGE('',*,*,#210,.T.);
#315=ORIENTED_EDGE('',*,*,#192,.T.);
#316=ORIENTED_EDGE('',*,*,#233,.F.);
#317=ORIENTED_EDGE('',*,*,#213,.T.);
#318=ORIENTED_EDGE('',*,*,#199,.F.);
#319=ORIENTED_EDGE('',*,*,#234,.F.);
#320=ORIENTED_EDGE('',*,*,#235,.F.);
#321=ORIENTED_EDGE('',*,*,#202,.T.);
#322=ORIENTED_EDGE('',*,*,#221,.F.);
#323=ORIENTED_EDGE('',*,*,#223,.F.);
#324=ORIENTED_EDGE('',*,*,#226,.T.);
#325=ORIENTED_EDGE('',*,*,#198,.T.);
#326=ORIENTED_EDGE('',*,*,#232,.F.);
#327=ORIENTED_EDGE('',*,*,#236,.F.);
#328=ORIENTED_EDGE('',*,*,#234,.T.);
#329=ORIENTED_EDGE('',*,*,#214,.T.);
#330=ORIENTED_EDGE('',*,*,#235,.T.);
#331=ORIENTED_EDGE('',*,*,#236,.T.);
#332=ORIENTED_EDGE('',*,*,#231,.T.);
#333=PLANE('',#383);
#334=PLANE('',#386);
#335=PLANE('',#390);
#336=PLANE('',#392);
#337=PLANE('',#393);
#338=PLANE('',#394);
#339=PLANE('',#395);
#340=PLANE('',#396);
#341=PLANE('',#397);
#342=PLANE('',#398);
#343=PLANE('',#399);
#344=PLANE('',#400);
#345=PLANE('',#401);
#346=PLANE('',#402);
#347=PLANE('',#403);
#348=PLANE('',#404);
#349=PLANE('',#405);
#350=ADVANCED_FACE('',(#26,#17,#18,#19),#333,.T.);
#351=ADVANCED_FACE('',(#27,#20,#21),#334,.F.);
#352=ADVANCED_FACE('',(#28),#15,.F.);
#353=ADVANCED_FACE('',(#29),#335,.T.);
#354=ADVANCED_FACE('',(#30),#16,.F.);
#355=ADVANCED_FACE('',(#31),#336,.F.);
#356=ADVANCED_FACE('',(#32),#337,.F.);
#357=ADVANCED_FACE('',(#33),#338,.T.);
#358=ADVANCED_FACE('',(#34),#339,.F.);
#359=ADVANCED_FACE('',(#35),#340,.T.);
#360=ADVANCED_FACE('',(#36),#341,.T.);
#361=ADVANCED_FACE('',(#37),#342,.F.);
#362=ADVANCED_FACE('',(#38),#343,.F.);
#363=ADVANCED_FACE('',(#39),#344,.T.);
#364=ADVANCED_FACE('',(#40),#345,.T.);
#365=ADVANCED_FACE('',(#41),#346,.F.);
#366=ADVANCED_FACE('',(#42),#347,.F.);
#367=ADVANCED_FACE('',(#43),#348,.F.);
#368=ADVANCED_FACE('',(#44),#349,.T.);
#369=CLOSED_SHELL('',(#350,#351,#352,#353,#354,#355,#356,#357,#358,#359,
#360,#361,#362,#363,#364,#365,#366,#367,#368));
#370=DERIVED_UNIT_ELEMENT(#372,1.);
#371=DERIVED_UNIT_ELEMENT(#603,-3.);
#372=(
MASS_UNIT()
NAMED_UNIT(*)
SI_UNIT(.KILO.,.GRAM.)
);
#373=DERIVED_UNIT((#370,#371));
#374=MEASURE_REPRESENTATION_ITEM('density measure',
POSITIVE_RATIO_MEASURE(7850.),#373);
#375=PROPERTY_DEFINITION_REPRESENTATION(#380,#377);
#376=PROPERTY_DEFINITION_REPRESENTATION(#381,#378);
#377=REPRESENTATION('material name',(#379),#600);
#378=REPRESENTATION('density',(#374),#600);
#379=DESCRIPTIVE_REPRESENTATION_ITEM('Steel','Steel');
#380=PROPERTY_DEFINITION('material property','material name',#610);
#381=PROPERTY_DEFINITION('material property','density of part',#610);
#382=AXIS2_PLACEMENT_3D('',#498,#406,#407);
#383=AXIS2_PLACEMENT_3D('',#499,#408,#409);
#384=AXIS2_PLACEMENT_3D('',#509,#414,#415);
#385=AXIS2_PLACEMENT_3D('',#511,#416,#417);
#386=AXIS2_PLACEMENT_3D('',#528,#426,#427);
#387=AXIS2_PLACEMENT_3D('',#538,#432,#433);
#388=AXIS2_PLACEMENT_3D('',#540,#434,#435);
#389=AXIS2_PLACEMENT_3D('',#541,#436,#437);
#390=AXIS2_PLACEMENT_3D('',#543,#439,#440);
#391=AXIS2_PLACEMENT_3D('',#546,#443,#444);
#392=AXIS2_PLACEMENT_3D('',#548,#446,#447);
#393=AXIS2_PLACEMENT_3D('',#562,#455,#456);
#394=AXIS2_PLACEMENT_3D('',#566,#459,#460);
#395=AXIS2_PLACEMENT_3D('',#570,#463,#464);
#396=AXIS2_PLACEMENT_3D('',#575,#468,#469);
#397=AXIS2_PLACEMENT_3D('',#577,#471,#472);
#398=AXIS2_PLACEMENT_3D('',#581,#475,#476);
#399=AXIS2_PLACEMENT_3D('',#583,#478,#479);
#400=AXIS2_PLACEMENT_3D('',#587,#482,#483);
#401=AXIS2_PLACEMENT_3D('',#589,#485,#486);
#402=AXIS2_PLACEMENT_3D('',#590,#487,#488);
#403=AXIS2_PLACEMENT_3D('',#594,#491,#492);
#404=AXIS2_PLACEMENT_3D('',#595,#493,#494);
#405=AXIS2_PLACEMENT_3D('',#597,#496,#497);
#406=DIRECTION('axis',(0.,0.,1.));
#407=DIRECTION('refdir',(1.,0.,0.));
#408=DIRECTION('center_axis',(1.57898385724467E-15,-8.76512116912235E-32,
1.));
#409=DIRECTION('ref_axis',(-5.55111512312578E-17,-1.,0.));
#410=DIRECTION('',(-1.,0.,1.57898385724467E-15));
#411=DIRECTION('',(0.,-1.,-8.76512116912235E-32));
#412=DIRECTION('',(1.,0.,-1.57898385724467E-15));
#413=DIRECTION('',(0.,1.,8.76512116912235E-32));
#414=DIRECTION('center_axis',(-1.57898385724467E-15,8.76512116912235E-32,
-1.));
#415=DIRECTION('ref_axis',(1.,0.,-1.57898385724467E-15));
#416=DIRECTION('center_axis',(-1.57898385724467E-15,8.76512116912235E-32,
-1.));
#417=DIRECTION('ref_axis',(1.,0.,-1.57898385724467E-15));
#418=DIRECTION('',(1.,0.,-1.57898385724467E-15));
#419=DIRECTION('',(0.,1.,8.76512116912235E-32));
#420=DIRECTION('',(-1.,-8.88178419700125E-16,1.57898385724467E-15));
#421=DIRECTION('',(-5.55111512312578E-17,-1.,0.));
#422=DIRECTION('',(1.,2.1624976301309E-48,-1.57898385724467E-15));
#423=DIRECTION('',(0.,-1.,0.));
#424=DIRECTION('',(-1.,-2.1624976301309E-48,1.57898385724467E-15));
#425=DIRECTION('',(-5.55111512312578E-17,-1.,0.));
#426=DIRECTION('center_axis',(1.57898385724467E-15,-8.76512116912235E-32,
1.));
#427=DIRECTION('ref_axis',(-5.55111512312578E-17,-1.,0.));
#428=DIRECTION('',(-1.,0.,1.57898385724467E-15));
#429=DIRECTION('',(0.,1.,8.76512116912235E-32));
#430=DIRECTION('',(1.,0.,-1.57898385724467E-15));
#431=DIRECTION('',(0.,-1.,-8.76512116912235E-32));
#432=DIRECTION('center_axis',(-1.57898385724467E-15,8.76512116912235E-32,
-1.));
#433=DIRECTION('ref_axis',(1.,0.,-1.57898385724467E-15));
#434=DIRECTION('center_axis',(-1.57898385724467E-15,8.76512116912235E-32,
-1.));
#435=DIRECTION('ref_axis',(1.,0.,-1.57898385724467E-15));
#436=DIRECTION('center_axis',(-1.57898385724467E-15,8.76512116912235E-32,
-1.));
#437=DIRECTION('ref_axis',(1.,0.,-1.57898385724467E-15));
#438=DIRECTION('',(-1.57898385724467E-15,8.76512116912235E-32,-1.));
#439=DIRECTION('center_axis',(0.,-1.,0.));
#440=DIRECTION('ref_axis',(0.,0.,-1.));
#441=DIRECTION('',(0.,0.,-1.));
#442=DIRECTION('',(0.,0.,1.));
#443=DIRECTION('center_axis',(-1.57898385724467E-15,8.76512116912235E-32,
-1.));
#444=DIRECTION('ref_axis',(1.,0.,-1.57898385724467E-15));
#445=DIRECTION('',(-1.57898385724467E-15,8.76512116912235E-32,-1.));
#446=DIRECTION('center_axis',(-1.,0.,0.));
#447=DIRECTION('ref_axis',(0.,0.,1.));
#448=DIRECTION('',(0.,0.,-1.));
#449=DIRECTION('',(0.,1.,0.));
#450=DIRECTION('',(0.,0.,1.));
#451=DIRECTION('',(0.,1.,0.));
#452=DIRECTION('',(0.,0.,-1.));
#453=DIRECTION('',(0.,1.,0.));
#454=DIRECTION('',(0.,0.,1.));
#455=DIRECTION('center_axis',(5.55111512312578E-17,1.,0.));
#456=DIRECTION('ref_axis',(1.57898385724467E-15,-8.76512116912235E-32,1.));
#457=DIRECTION('',(1.,-5.55111512312578E-17,0.));
#458=DIRECTION('',(-1.57898385724467E-15,8.76512116912235E-32,-1.));
#459=DIRECTION('center_axis',(0.,0.,1.));
#460=DIRECTION('ref_axis',(8.88178419700125E-16,1.,0.));
#461=DIRECTION('',(-1.,8.88178419700125E-16,0.));
#462=DIRECTION('',(-8.88178419700125E-16,-1.,0.));
#463=DIRECTION('center_axis',(-8.88178419700125E-16,-1.,0.));
#464=DIRECTION('ref_axis',(0.,0.,1.));
#465=DIRECTION('',(-1.,8.88178419700125E-16,0.));
#466=DIRECTION('',(0.,0.,-1.));
#467=DIRECTION('',(0.,0.,-1.));
#468=DIRECTION('center_axis',(1.,0.,0.));
#469=DIRECTION('ref_axis',(0.,0.,-1.));
#470=DIRECTION('',(0.,0.,-1.));
#471=DIRECTION('center_axis',(0.,0.,1.));
#472=DIRECTION('ref_axis',(0.,1.,0.));
#473=DIRECTION('',(1.,8.88178419700125E-16,0.));
#474=DIRECTION('',(0.,-1.,0.));
#475=DIRECTION('center_axis',(1.,0.,0.));
#476=DIRECTION('ref_axis',(0.,0.,-1.));
#477=DIRECTION('',(0.,0.,1.));
#478=DIRECTION('center_axis',(-8.88178419700125E-16,1.,0.));
#479=DIRECTION('ref_axis',(0.,0.,1.));
#480=DIRECTION('',(1.,8.88178419700125E-16,0.));
#481=DIRECTION('',(0.,0.,-1.));
#482=DIRECTION('center_axis',(0.,1.,0.));
#483=DIRECTION('ref_axis',(0.,0.,1.));
#484=DIRECTION('',(0.,0.,1.));
#485=DIRECTION('center_axis',(-1.,0.,0.));
#486=DIRECTION('ref_axis',(0.,0.,1.));
#487=DIRECTION('center_axis',(-5.55111512312578E-17,-1.,0.));
#488=DIRECTION('ref_axis',(-1.57898385724467E-15,8.76512116912235E-32,-1.));
#489=DIRECTION('',(1.57898385724467E-15,-8.76512116912235E-32,1.));
#490=DIRECTION('',(-1.,5.55111512312578E-17,0.));
#491=DIRECTION('center_axis',(1.,-5.55111512312578E-17,-1.57898385724467E-15));
#492=DIRECTION('ref_axis',(1.57898385724467E-15,-8.76512116912235E-32,1.));
#493=DIRECTION('center_axis',(1.,-5.55111512312578E-17,-1.57898385724467E-15));
#494=DIRECTION('ref_axis',(1.57898385724467E-15,-8.76512116912235E-32,1.));
#495=DIRECTION('',(8.88178419700125E-16,-1.,0.));
#496=DIRECTION('center_axis',(0.,0.,1.));
#497=DIRECTION('ref_axis',(8.88178419700125E-16,-1.,0.));
#498=CARTESIAN_POINT('',(0.,0.,0.));
#499=CARTESIAN_POINT('Origin',(0.249999940395356,0.,0.799999999999993));
#500=CARTESIAN_POINT('',(-3.4,-4.,0.799999999999999));
#501=CARTESIAN_POINT('',(3.55,-4.,0.799999999999988));
#502=CARTESIAN_POINT('',(0.249999970197678,-4.,0.799999999999993));
#503=CARTESIAN_POINT('',(3.55,4.,0.799999999999988));
#504=CARTESIAN_POINT('',(3.55,-1.7530242338244E-32,0.799999999999988));
#505=CARTESIAN_POINT('',(-3.4,4.,0.799999999999999));
#506=CARTESIAN_POINT('',(0.249999970197678,4.,0.799999999999993));
#507=CARTESIAN_POINT('',(-3.4,-1.75302423382449E-32,0.799999999999999));
#508=CARTESIAN_POINT('',(-2.95854984390762,-3.21802696878297,0.799999999999999));
#509=CARTESIAN_POINT('Origin',(-2.63152484390762,-3.21802696878297,0.799999999999999));
#510=CARTESIAN_POINT('',(-2.95854984390762,3.1611734578978,0.799999999999999));
#511=CARTESIAN_POINT('Origin',(-2.63152484390762,3.1611734578978,0.799999999999999));
#512=CARTESIAN_POINT('',(-2.,-2.,0.799999999999993));
#513=CARTESIAN_POINT('',(2.2,-2.,0.799999999999993));
#514=CARTESIAN_POINT('',(1.37499997019768,-2.,0.799999999999991));
#515=CARTESIAN_POINT('',(2.2,2.,0.799999999999993));
#516=CARTESIAN_POINT('',(2.2,2.19128029228061E-32,0.79999999999999));
#517=CARTESIAN_POINT('',(-2.,2.,0.799999999999993));
#518=CARTESIAN_POINT('',(0.249999970197676,2.,0.799999999999993));
#519=CARTESIAN_POINT('',(-2.00000005960464,3.,0.8));
#520=CARTESIAN_POINT('',(-2.00000005960464,6.24500467895262E-17,0.8));
#521=CARTESIAN_POINT('',(2.59999994039536,3.,0.799999999999998));
#522=CARTESIAN_POINT('',(1.37499994039536,3.,0.799999999999991));
#523=CARTESIAN_POINT('',(2.59999994039536,-3.,0.799999999999998));
#524=CARTESIAN_POINT('',(2.6,0.,0.8));
#525=CARTESIAN_POINT('',(-2.00000005960464,-3.,0.8));
#526=CARTESIAN_POINT('',(1.37499994039536,-3.,0.799999999999991));
#527=CARTESIAN_POINT('',(-2.00000005960464,6.24500467895262E-17,0.8));
#528=CARTESIAN_POINT('Origin',(0.249999940395355,0.,-6.77236045021345E-15));
#529=CARTESIAN_POINT('',(3.55,-4.,-1.19879415350463E-14));
#530=CARTESIAN_POINT('',(-3.4,-4.,-9.99200722162641E-16));
#531=CARTESIAN_POINT('',(0.249999970197677,-4.,-6.77236045021345E-15));
#532=CARTESIAN_POINT('',(-3.4,4.,-9.99200722162641E-16));
#533=CARTESIAN_POINT('',(-3.4,1.75302423382445E-32,-9.99200722162641E-16));
#534=CARTESIAN_POINT('',(3.55,4.,-1.19879415350463E-14));
#535=CARTESIAN_POINT('',(0.249999970197677,4.,-6.77236045021345E-15));
#536=CARTESIAN_POINT('',(3.55,1.75302423382455E-32,-1.19904086659517E-14));
#537=CARTESIAN_POINT('',(-2.95854984390762,-3.21802696878297,-9.64506252643105E-16));
#538=CARTESIAN_POINT('Origin',(-2.63152484390762,-3.21802696878297,-1.47798440153224E-15));
#539=CARTESIAN_POINT('',(-2.95854984390762,3.1611734578978,-9.82433887328524E-16));
#540=CARTESIAN_POINT('Origin',(-2.63152484390762,3.1611734578978,-1.49880108324396E-15));
#541=CARTESIAN_POINT('Origin',(-2.63152484390762,-3.21802696878297,0.0499999999999985));
#542=CARTESIAN_POINT('',(-2.95854984390762,-3.21802696878297,0.049999999999999));
#543=CARTESIAN_POINT('Origin',(0.25,-4.,0.4));
#544=CARTESIAN_POINT('',(-3.4,-4.,0.4));
#545=CARTESIAN_POINT('',(3.55,-4.,0.4));
#546=CARTESIAN_POINT('Origin',(-2.63152484390762,3.1611734578978,0.299999999999998));
#547=CARTESIAN_POINT('',(-2.95854984390762,3.1611734578978,0.299999999999999));
#548=CARTESIAN_POINT('Origin',(2.59999994039536,0.,0.4));
#549=CARTESIAN_POINT('',(2.6,3.,4.29999999999999));
#550=CARTESIAN_POINT('',(2.59999994039536,3.,0.399999999999997));
#551=CARTESIAN_POINT('',(2.6,2.,4.29999999999999));
#552=CARTESIAN_POINT('',(2.59999994039536,1.125,4.29999999999999));
#553=CARTESIAN_POINT('',(2.6,2.,1.79999999999999));
#554=CARTESIAN_POINT('',(2.59999994039536,2.,1.475));
#555=CARTESIAN_POINT('',(2.6,-2.,1.79999999999999));
#556=CARTESIAN_POINT('',(2.59999994039536,0.,1.79999999999999));
#557=CARTESIAN_POINT('',(2.6,-2.,4.29999999999999));
#558=CARTESIAN_POINT('',(2.59999994039536,-2.,1.475));
#559=CARTESIAN_POINT('',(2.6,-3.,4.29999999999999));
#560=CARTESIAN_POINT('',(2.59999994039536,-1.125,4.29999999999999));
#561=CARTESIAN_POINT('',(2.59999994039536,-3.,0.399999999999997));
#562=CARTESIAN_POINT('Origin',(0.249999940395355,-3.,0.399999999999993));
#563=CARTESIAN_POINT('',(-2.,-3.,4.29999999999999));
#564=CARTESIAN_POINT('',(0.249999970197677,-3.,4.29999999999999));
#565=CARTESIAN_POINT('',(-2.00000005960465,-3.,0.399999999999997));
#566=CARTESIAN_POINT('Origin',(0.25,-2.25,4.29999999999999));
#567=CARTESIAN_POINT('',(-2.,-2.,4.29999999999999));
#568=CARTESIAN_POINT('',(0.25,-2.,4.29999999999999));
#569=CARTESIAN_POINT('',(-2.,-2.25,4.29999999999999));
#570=CARTESIAN_POINT('Origin',(0.25,-2.,2.54999999999999));
#571=CARTESIAN_POINT('',(2.2,-2.,1.79999999999999));
#572=CARTESIAN_POINT('',(1.675,-2.,1.79999999999999));
#573=CARTESIAN_POINT('',(2.2,-2.,1.92499999999999));
#574=CARTESIAN_POINT('',(-2.,-2.,2.54999999999999));
#575=CARTESIAN_POINT('Origin',(3.55,0.,0.4));
#576=CARTESIAN_POINT('',(3.55,4.,0.4));
#577=CARTESIAN_POINT('Origin',(3.1,0.,1.79999999999999));
#578=CARTESIAN_POINT('',(2.2,2.,1.79999999999999));
#579=CARTESIAN_POINT('',(1.675,2.,1.79999999999999));
#580=CARTESIAN_POINT('',(2.2,0.,1.79999999999999));
#581=CARTESIAN_POINT('Origin',(2.2,0.,1.29999999999999));
#582=CARTESIAN_POINT('',(2.2,2.,1.92499999999999));
#583=CARTESIAN_POINT('Origin',(0.25,2.,2.54999999999999));
#584=CARTESIAN_POINT('',(-2.,2.,4.29999999999999));
#585=CARTESIAN_POINT('',(0.25,2.,4.29999999999999));
#586=CARTESIAN_POINT('',(-2.,2.,2.54999999999999));
#587=CARTESIAN_POINT('Origin',(0.25,4.,0.4));
#588=CARTESIAN_POINT('',(-3.4,4.,0.4));
#589=CARTESIAN_POINT('Origin',(-3.4,0.,0.4));
#590=CARTESIAN_POINT('Origin',(0.249999940395356,3.,0.399999999999993));
#591=CARTESIAN_POINT('',(-2.,3.,4.29999999999999));
#592=CARTESIAN_POINT('',(-2.00000005960464,3.,0.399999999999997));
#593=CARTESIAN_POINT('',(0.249999970197678,3.,4.29999999999999));
#594=CARTESIAN_POINT('Origin',(-2.00000005960464,0.,0.399999999999997));
#595=CARTESIAN_POINT('Origin',(-2.00000005960464,0.,0.399999999999997));
#596=CARTESIAN_POINT('',(-2.,2.25,4.29999999999999));
#597=CARTESIAN_POINT('Origin',(0.25,2.25,4.29999999999999));
#598=UNCERTAINTY_MEASURE_WITH_UNIT(LENGTH_MEASURE(0.001),#602,
'DISTANCE_ACCURACY_VALUE',
'Maximum model space distance between geometric entities at asserted c
onnectivities');
#599=UNCERTAINTY_MEASURE_WITH_UNIT(LENGTH_MEASURE(0.001),#602,
'DISTANCE_ACCURACY_VALUE',
'Maximum model space distance between geometric entities at asserted c
onnectivities');
#600=(
GEOMETRIC_REPRESENTATION_CONTEXT(3)
GLOBAL_UNCERTAINTY_ASSIGNED_CONTEXT((#598))
GLOBAL_UNIT_ASSIGNED_CONTEXT((#602,#604,#605))
REPRESENTATION_CONTEXT('','3D')
);
#601=(
GEOMETRIC_REPRESENTATION_CONTEXT(3)
GLOBAL_UNCERTAINTY_ASSIGNED_CONTEXT((#599))
GLOBAL_UNIT_ASSIGNED_CONTEXT((#602,#604,#605))
REPRESENTATION_CONTEXT('','3D')
);
#602=(
LENGTH_UNIT()
NAMED_UNIT(*)
SI_UNIT(.CENTI.,.METRE.)
);
#603=(
LENGTH_UNIT()
NAMED_UNIT(*)
SI_UNIT($,.METRE.)
);
#604=(
NAMED_UNIT(*)
PLANE_ANGLE_UNIT()
SI_UNIT($,.RADIAN.)
);
#605=(
NAMED_UNIT(*)
SI_UNIT($,.STERADIAN.)
SOLID_ANGLE_UNIT()
);
#606=SHAPE_DEFINITION_REPRESENTATION(#607,#608);
#607=PRODUCT_DEFINITION_SHAPE('',$,#610);
#608=SHAPE_REPRESENTATION('',(#382),#600);
#609=PRODUCT_DEFINITION_CONTEXT('part definition',#614,'design');
#610=PRODUCT_DEFINITION('2026-02-17-00-04-24-354','(Unsaved)',#611,#609);
#611=PRODUCT_DEFINITION_FORMATION('',$,#616);
#612=PRODUCT_RELATED_PRODUCT_CATEGORY('(Unsaved)','(Unsaved)',(#616));
#613=APPLICATION_PROTOCOL_DEFINITION('international standard',
'automotive_design',2009,#614);
#614=APPLICATION_CONTEXT(
'Core Data for Automotive Mechanical Design Process');
#615=PRODUCT_CONTEXT('part definition',#614,'mechanical');
#616=PRODUCT('2026-02-17-00-04-24-354','(Unsaved)',$,(#615));
#617=PRESENTATION_STYLE_ASSIGNMENT((#618));
#618=SURFACE_STYLE_USAGE(.BOTH.,#619);
#619=SURFACE_SIDE_STYLE('',(#620));
#620=SURFACE_STYLE_FILL_AREA(#621);
#621=FILL_AREA_STYLE('Steel - Satin',(#622));
#622=FILL_AREA_STYLE_COLOUR('Steel - Satin',#623);
#623=COLOUR_RGB('Steel - Satin',0.627450980392157,0.627450980392157,0.627450980392157);
ENDSEC;
END-ISO-10303-21;
